<svg width="242" height="274" viewBox="0 0 242 274" fill="none" xmlns="http://www.w3.org/2000/svg">
<rect width="242" height="274" fill="white"/>
<circle cx="121" cy="137" r="110" fill="#14B8A6"/>
<path d="M61.6 166.1C62.6667 163.433 64.1667 160.333 66.1 156.8C68.1 153.267 69.8333 150.4 71.3 148.2L73.5 145C74.4333 143.667 75.3667 143 76.3 143C77.0333 143 77.4 143.367 77.4 144.1L77.1 145.1C74.7 151.167 73.5 156.4 73.5 160.8C73.5 164.333 74.2667 167.233 75.8 169.5C77.4 171.7 79.8667 172.8 83.2 172.8C88.2 172.8 92.2333 170.633 95.3 166.3C98.3667 161.9 99.9 157.167 99.9 152.1C99.9 147.767 98.4 141.6 95.4 133.6C92.4667 125.533 91 120.067 91 117.2C91 111 93.6333 106.033 98.9 102.3C104.233 98.5 110.067 96.6 116.4 96.6C117.533 96.6 118.633 96.6667 119.7 96.8C120.833 96.9333 122.067 97.1667 123.4 97.5C124.733 97.7667 125.8 98.2333 126.6 98.9C127.4 99.5667 127.8 100.4 127.8 101.4C127.8 102.733 126.867 105 125 108.2C123.133 111.4 121.567 113.833 120.3 115.5C119.833 115.833 119.433 116 119.1 116C118.633 116 118.4 115.6 118.4 114.8C118.4 112.933 118.6 110.4 119 107.2C119 102 117 99.4 113 99.4C109.6 99.4 106.7 100.567 104.3 102.9C101.967 105.233 100.8 108.067 100.8 111.4C100.8 115.8 102.333 121.933 105.4 129.8C108.533 137.667 110.1 143.733 110.1 148C110.1 156 106.933 162.6 100.6 167.8C94.3333 172.933 87.2667 175.5 79.4 175.5C78.0667 175.5 76.4667 175.367 74.6 175.1C72.7333 174.833 70.7667 174.4 68.7 173.8C66.6333 173.267 64.9 172.467 63.5 171.4C62.0333 170.267 61.3 169 61.3 167.6C61.3 167.067 61.4 166.567 61.6 166.1ZM176.027 103.4C173.027 103.4 168.927 105.733 163.727 110.4C161.927 111.867 160.86 113.067 160.527 114C158.393 119.6 156.293 128.467 154.227 140.6C152.16 152.667 151.127 161.6 151.127 167.4C151.127 169.267 151.193 170.933 151.327 172.4C151.46 173.8 151.593 174.733 151.727 175.2L151.927 176C152.06 176.667 152.127 177.033 152.127 177.1C152.127 177.833 151.793 178.2 151.127 178.2C150.393 178.2 149.493 177.767 148.427 176.9C147.36 176.1 146.393 174.967 145.527 173.5C143.86 170.567 143.027 166.133 143.027 160.2C143.027 151.067 145.193 139.9 149.527 126.7C149.727 125.9 149.827 125.367 149.827 125.1C149.827 124.633 149.693 124.4 149.427 124.4L148.127 125.2C143.26 129.133 137.927 134.9 132.127 142.5C130.06 145.167 128.06 148.033 126.127 151.1C124.193 154.167 122.793 156.567 121.927 158.3L120.627 160.9C119.027 164.367 116.593 168 113.327 171.8C110.06 175.6 107.327 177.5 105.127 177.5C104.393 177.5 104.027 177.133 104.027 176.4L104.327 175.1C105.06 173.033 108.16 166.667 113.627 156C119.093 145.267 123.46 137.067 126.727 131.4C129.86 126 132.927 120.9 135.927 116.1C138.927 111.3 141.16 107.867 142.627 105.8L144.827 102.6C145.16 102.133 145.593 101.567 146.127 100.9C146.66 100.167 147.76 99.2 149.427 98C151.093 96.8 152.727 96.1667 154.327 96.1C155.06 96.1 155.427 96.4667 155.427 97.2C155.427 97.6667 155.26 98.2 154.927 98.8C146.393 112.467 140.293 123.1 136.627 130.7C136.56 131.1 136.527 131.433 136.527 131.7C136.527 132.1 136.627 132.3 136.827 132.3C137.093 132.3 137.493 132.033 138.027 131.5L148.227 121.2C165.627 104.2 176.86 95.6667 181.927 95.6C183.793 95.6 184.727 96.7 184.727 98.9C184.727 100.633 184.193 102.433 183.127 104.3C182.127 106.1 181.16 107 180.227 107C179.827 107 179.593 106.733 179.527 106.2C179.46 106 179.36 105.767 179.227 105.5C179.16 105.167 178.827 104.733 178.227 104.2C177.627 103.667 176.893 103.4 176.027 103.4Z" fill="white"/>
</svg>
