<svg width="242" height="274" viewBox="0 0 242 274" fill="none" xmlns="http://www.w3.org/2000/svg">
<rect width="242" height="274" fill="white"/>
<g filter="url(#filter0_d_4_3)">
<rect x="9" y="26" width="223" height="224" rx="20" fill="#14B8A6"/>
</g>
<path d="M95.3047 138.441C95.3047 136.996 95.168 135.707 94.8945 134.574C94.6211 133.402 94.0938 132.328 93.3125 131.352C92.5312 130.336 91.3594 129.32 89.7969 128.305C88.2344 127.289 86.1836 126.234 83.6445 125.141C80.5195 123.852 77.4727 122.445 74.5039 120.922C71.5742 119.359 68.9375 117.562 66.5938 115.531C64.25 113.461 62.375 111.039 60.9688 108.266C59.5625 105.453 58.8594 102.172 58.8594 98.4219C58.8594 94.7891 59.543 91.5078 60.9102 88.5781C62.2773 85.6094 64.1914 83.0898 66.6523 81.0195C69.1133 78.9102 72.0234 77.3086 75.3828 76.2148C78.7422 75.082 82.4336 74.5156 86.457 74.5156C91.8867 74.5156 96.6328 75.6289 100.695 77.8555C104.758 80.043 107.922 83.1289 110.188 87.1133C112.453 91.0586 113.586 95.668 113.586 100.941H95.0703C95.0703 98.6367 94.7578 96.625 94.1328 94.9062C93.5078 93.1484 92.5312 91.7812 91.2031 90.8047C89.9141 89.7891 88.2148 89.2812 86.1055 89.2812C84.1523 89.2812 82.5312 89.6914 81.2422 90.5117C79.9531 91.332 78.9961 92.4453 78.3711 93.8516C77.7461 95.2578 77.4336 96.8203 77.4336 98.5391C77.4336 99.9062 77.7461 101.117 78.3711 102.172C79.0352 103.227 79.9141 104.203 81.0078 105.102C82.1406 106 83.4688 106.859 84.9922 107.68C86.5547 108.5 88.2344 109.281 90.0312 110.023C93.8594 111.547 97.2578 113.207 100.227 115.004C103.234 116.801 105.734 118.832 107.727 121.098C109.758 123.324 111.281 125.863 112.297 128.715C113.352 131.527 113.879 134.73 113.879 138.324C113.879 141.996 113.254 145.316 112.004 148.285C110.754 151.215 108.957 153.715 106.613 155.785C104.309 157.855 101.496 159.438 98.1758 160.531C94.8555 161.625 91.1445 162.172 87.043 162.172C83.1758 162.172 79.4453 161.625 75.8516 160.531C72.2578 159.398 69.0547 157.68 66.2422 155.375C63.4688 153.07 61.2617 150.121 59.6211 146.527C57.9805 142.934 57.1602 138.656 57.1602 133.695H75.793C75.793 136.234 76.0078 138.402 76.4375 140.199C76.9062 141.957 77.6094 143.363 78.5469 144.418C79.5234 145.473 80.7148 146.254 82.1211 146.762C83.5664 147.23 85.2852 147.465 87.2773 147.465C89.3086 147.465 90.9102 147.055 92.082 146.234C93.2539 145.414 94.0742 144.34 94.543 143.012C95.0508 141.645 95.3047 140.121 95.3047 138.441Z" fill="white"/>
<path d="M153.961 109.688V195H135.328V109.688H153.961ZM196.266 109.688L168.961 152.52L152.203 173.613L148.688 155.566L159.176 137.051L173.531 109.688H196.266ZM174.293 195L157.242 156.211L171.363 144.727L196.266 195H174.293Z" fill="white"/>
<defs>
<filter id="filter0_d_4_3" x="5" y="26" width="231" height="232" filterUnits="userSpaceOnUse" color-interpolation-filters="sRGB">
<feFlood flood-opacity="0" result="BackgroundImageFix"/>
<feColorMatrix in="SourceAlpha" type="matrix" values="0 0 0 0 0 0 0 0 0 0 0 0 0 0 0 0 0 0 127 0" result="hardAlpha"/>
<feOffset dy="4"/>
<feGaussianBlur stdDeviation="2"/>
<feComposite in2="hardAlpha" operator="out"/>
<feColorMatrix type="matrix" values="0 0 0 0 0 0 0 0 0 0 0 0 0 0 0 0 0 0 0.25 0"/>
<feBlend mode="normal" in2="BackgroundImageFix" result="effect1_dropShadow_4_3"/>
<feBlend mode="normal" in="SourceGraphic" in2="effect1_dropShadow_4_3" result="shape"/>
</filter>
</defs>
</svg>
